<?xml version="1.0" encoding="UTF-8" standalone="no"?>
<svg
   xmlns:dc="http://purl.org/dc/elements/1.1/"
   xmlns:cc="http://creativecommons.org/ns#"
   xmlns:rdf="http://www.w3.org/1999/02/22-rdf-syntax-ns#"
   xmlns:svg="http://www.w3.org/2000/svg"
   xmlns="http://www.w3.org/2000/svg"
   xmlns:sodipodi="http://sodipodi.sourceforge.net/DTD/sodipodi-0.dtd"
   xmlns:inkscape="http://www.inkscape.org/namespaces/inkscape"
   version="1.1"
   id="Layer_1"
   x="0px"
   y="0px"
   width="2000px"
   height="400px"
   viewBox="0 0 2000 400"
   enable-background="new 0 0 2000 400"
   xml:space="preserve"
   sodipodi:docname="ncar-vast-logo-navy.svg"
   inkscape:version="1.0.2 (e86c8708, 2021-01-15)"><metadata
   id="metadata136"><rdf:RDF><cc:Work
       rdf:about=""><dc:format>image/svg+xml</dc:format><dc:type
         rdf:resource="http://purl.org/dc/dcmitype/StillImage" /><dc:title>NCAR-contemp-logo-blue.a</dc:title></cc:Work></rdf:RDF></metadata><defs
   id="defs134"><rect
     x="862.35187"
     y="-144.02917"
     width="41.932543"
     height="40.109389"
     id="rect144" /></defs><sodipodi:namedview
   pagecolor="#ffffff"
   bordercolor="#666666"
   borderopacity="1"
   objecttolerance="10"
   gridtolerance="10"
   guidetolerance="10"
   inkscape:pageopacity="0"
   inkscape:pageshadow="2"
   inkscape:window-width="1194"
   inkscape:window-height="599"
   id="namedview132"
   showgrid="false"
   inkscape:zoom="0.5485"
   inkscape:cx="1251.5953"
   inkscape:cy="158.06746"
   inkscape:window-x="118"
   inkscape:window-y="68"
   inkscape:window-maximized="0"
   inkscape:current-layer="Layer_1" />
<title
   id="title107">NCAR-contemp-logo-blue.a</title>
<rect
   x="1019.916"
   y="57.287"
   fill="#012169"
   width="10.176"
   height="273.902"
   id="rect109" />
<path
   fill="#012169"
   d="M374.89,106.117c-53.655,0.195-86.728,24.574-86.52,86.778c0.239,64.595,40.704,104.439,105.288,104.211  c25.199-0.131,49.839-7.444,71.023-21.091l0.125,34.177c-21.827,12.386-51.222,16.919-74.78,17.015  c-75.537,0.266-137.553-43.252-137.868-134.172c-0.297-82.019,52.543-117.082,117.485-117.297  c32.818-0.122,64.972,6.594,94.725,14.359l0.133,36.562c-17.817-12.578-59.884-20.627-89.62-20.529"
   id="path111" />
<path
   fill="#012169"
   d="M688.799,318.27c-0.831-4.104-0.429-8.202-10.759-30.387c-7.448-16.715-15.296-31.616-22.734-48.345  l-104.978,0.372c-7.317,17.119-14.636,32.076-22.384,48.848c-4.229,9.702-7.489,19.794-9.737,30.13l-44.946,0.166  c0,0,5.311-4.797,17.106-32.186c8.944-20.882,68.753-155.068,77.698-175.943C578.233,87.987,578.63,82.86,578.63,82.86l48.895-0.173  c0,0,0.431,6.143,9.937,27.644c9.1,20.823,68.216,153.554,77.723,174.716c13.636,29.679,19.128,33.081,19.128,33.081L688.799,318.27  z M601.565,117.963c-13.422,31.146-26.341,61.375-40.184,92.544l84.072-0.306c-14.458-31.041-29.429-61.181-43.903-92.229"
   id="path113" />
<path
   fill="#012169"
   d="M900.815,317.517c-5.77-5.788-11.936-11.584-18.1-17.372l-98.735-86.794l0.273,76.214  c0.039,10.925,0.905,24.26,2.972,28.359l-40.242,0.155c2.44-5.824,2.412-15.4,2.361-28.38l-0.642-179.44  c-0.043-9.377-0.762-18.739-2.153-28.011c30.763-0.124,57.452-4.306,87.38-4.427c45.923-0.162,80.437,16.12,80.579,57.817  c0.154,42.373-31.744,67.78-85.861,74.465c30.855,26.203,61.706,53.098,92.547,79.633c10.9,10.104,22.59,19.312,34.961,27.552  L900.815,317.517z M823.369,103.155c-13.129,0.041-25.827,1.799-39.763,3.214l0.27,75.992c8.63,0.65,16.417,1.29,25.034,1.29  c36.08-0.132,66.793-7.193,66.668-42.403c-0.097-29.05-20.231-38.196-52.209-38.085"
   id="path115" />
<path
   fill="#012169"
   d="M175.495,319.062c0,0-5.807-9.897-19.121-28.686c-39.943-54.63-79.551-109.934-119.149-164.914v164.227  c0,24.587,1.696,29.372,1.696,29.372H0c1.81-9.79,2.494-19.753,2.046-29.699V117.614c0.289-11.406-0.278-22.816-1.698-34.139h50.53  c0,0,2.046,5.812,19.465,30.05c14.329,19.799,104.137,144.417,118.463,164.23V116.24c0.406-10.953-0.162-21.919-1.698-32.774h38.918  c-1.743,10.833-2.431,21.807-2.054,32.774v168.346c0,31.065,1.361,31.065,2.054,34.489L175.495,319.062z"
   id="path117" />

<text
   xml:space="preserve"
   style="font-style:normal;font-variant:normal;font-weight:bold;font-stretch:normal;font-size:317.545px;line-height:1.25;font-family:sans-serif;-inkscape-font-specification:'sans-serif, Bold';font-variant-ligatures:normal;font-variant-caps:normal;font-variant-numeric:normal;font-variant-east-asian:normal;fill:#012169;fill-opacity:1;stroke:none;stroke-width:7.93863"
   x="1146.9894"
   y="308.729"
   id="text140"
   transform="scale(0.96502043,1.0362475)"><tspan
     sodipodi:role="line"
     id="tspan138"
     x="1146.9894"
     y="308.729"
     style="font-style:normal;font-variant:normal;font-weight:bold;font-stretch:normal;font-size:317.545px;font-family:sans-serif;-inkscape-font-specification:'sans-serif, Bold';font-variant-ligatures:normal;font-variant-caps:normal;font-variant-numeric:normal;font-variant-east-asian:normal;fill:#012169;fill-opacity:1;stroke-width:7.93863">VAST</tspan></text><text
   xml:space="preserve"
   id="text142"
   style="fill:black;fill-opacity:1;line-height:1.25;stroke:none;font-family:sans-serif;font-style:normal;font-weight:normal;font-size:40px;white-space:pre;shape-inside:url(#rect144);" /></svg>
